<svg xmlns="http://www.w3.org/2000/svg" width="300" height="300" viewBox="0 0 300 300">
  <rect width="300" height="300" fill="#f1f5f9" />
  <text x="150" y="120" font-family="Arial, sans-serif" font-size="20" text-anchor="middle" fill="#64748b">Image unavailable offline</text>
  <g transform="translate(125, 150)">
    <circle cx="25" cy="25" r="25" fill="#cbd5e1" />
    <path d="M25 15 A10 10 0 0 1 35 25 L35 40 A10 10 0 0 1 25 50 A10 10 0 0 1 15 40 L15 25 A10 10 0 0 1 25 15 Z" fill="#94a3b8" />
    <circle cx="25" cy="10" r="8" fill="#94a3b8" />
    <rect x="15" y="45" width="20" height="5" fill="#cbd5e1" />
    <path d="M0 20 L5 25 L0 30" fill="none" stroke="#64748b" stroke-width="2" />
    <path d="M50 20 L45 25 L50 30" fill="none" stroke="#64748b" stroke-width="2" />
  </g>
  <line x1="50" y1="200" x2="250" y2="200" stroke="#64748b" stroke-width="2" stroke-dasharray="5,5" />
</svg> 